<svg xmlns="http://www.w3.org/2000/svg" version="1.1" xmlns:xlink="http://www.w3.org/1999/xlink" xmlns:svgjs="http://svgjs.dev/svgjs" width="1440" height="560" preserveAspectRatio="none" viewBox="0 0 1440 560"><g mask="url(&quot;#SvgjsMask1150&quot;)" fill="none"><rect width="1440" height="560" x="0" y="0" fill="url(&quot;#SvgjsLinearGradient1151&quot;)"></rect><path d="M699.0253750218795 152.51197169806048L575.2277769240679 229.8692965893714 652.5851018153788 353.666894687183 776.3826999131904 276.3095697958721z" fill="rgba(28, 83, 142, 0.4)" class="triangle-float2"></path><path d="M1268.1794332886777 244.6778559382189L1155.1630705333228 201.2949389059221 1224.796516256381 357.6942186935738z" fill="rgba(28, 83, 142, 0.4)" class="triangle-float3"></path><path d="M1032.055,548.147C1064.603,547.44,1097.664,538.127,1115.104,510.636C1133.74,481.261,1134.356,443.785,1117.607,413.294C1100.219,381.64,1068.098,357.171,1032.055,359.449C998.685,361.558,980.115,394.09,963.384,423.04C946.633,452.024,926.401,485.041,942.509,514.387C958.961,544.359,997.873,548.89,1032.055,548.147" fill="rgba(28, 83, 142, 0.4)" class="triangle-float1"></path><path d="M934.2287863716112-83.03306455297286L836.0760205337067 73.71159438614409 997.5212265410103 82.17257910887996z" fill="rgba(28, 83, 142, 0.4)" class="triangle-float1"></path><path d="M407.3374637066297 293.33126486556137L376.7779779131954 160.96358942077123 244.4103024684053 191.5230752142055 274.96978826183954 323.89075065899567z" fill="rgba(28, 83, 142, 0.4)" class="triangle-float3"></path><path d="M732.8669068760098 154.12668862440273L834.9988881295961 74.3324396643223 755.2046391695156-27.79954158926401 653.0726579159293 51.99470737081643z" fill="rgba(28, 83, 142, 0.4)" class="triangle-float2"></path></g><defs><mask id="SvgjsMask1150"><rect width="1440" height="560" fill="#ffffff"></rect></mask><linearGradient x1="84.72%" y1="-39.29%" x2="15.28%" y2="139.29%" gradientUnits="userSpaceOnUse" id="SvgjsLinearGradient1151"><stop stop-color="rgba(0, 0, 0, 1)" offset="0.88"></stop><stop stop-color="rgba(0, 0, 0, 1)" offset="1"></stop></linearGradient><style>
                @keyframes float1 {
                    0%{transform: translate(0, 0)}
                    50%{transform: translate(-10px, 0)}
                    100%{transform: translate(0, 0)}
                }

                .triangle-float1 {
                    animation: float1 5s infinite;
                }

                @keyframes float2 {
                    0%{transform: translate(0, 0)}
                    50%{transform: translate(-5px, -5px)}
                    100%{transform: translate(0, 0)}
                }

                .triangle-float2 {
                    animation: float2 4s infinite;
                }

                @keyframes float3 {
                    0%{transform: translate(0, 0)}
                    50%{transform: translate(0, -10px)}
                    100%{transform: translate(0, 0)}
                }

                .triangle-float3 {
                    animation: float3 6s infinite;
                }
            </style></defs></svg>