<svg xmlns="http://www.w3.org/2000/svg" xmlns:xlink="http://www.w3.org/1999/xlink" viewBox="0 0 745.5 135.62"><defs><style>.cls-1{fill:#fff;}.cls-2{fill:#4ce56d;}.cls-3{opacity:0.04;fill:url(#linear-gradient);}</style><linearGradient id="linear-gradient" x1="-293.86" y1="447.79" x2="1115.27" y2="-1056.19" gradientUnits="userSpaceOnUse"><stop offset="0.12" stop-color="#5758e0"/><stop offset="0.95" stop-color="#03e8e8"/></linearGradient></defs><g id="Layer_2" data-name="Layer 2"><g id="Layer_1-2" data-name="Layer 1"><path class="cls-1" d="M210.91,24.32a28.2,28.2,0,0,1,12.66,10.52A29.44,29.44,0,0,1,228,51.12a29.46,29.46,0,0,1-4.41,16.21,28,28,0,0,1-12.66,10.59,47.39,47.39,0,0,1-19.4,3.67H172.18v24.72H156.27V20.65h35.24A47.39,47.39,0,0,1,210.91,24.32Zm-4.35,39.4q5.38-4.39,5.39-12.6t-5.39-12.61q-5.38-4.4-15.78-4.4h-18.6v34h18.6Q201.18,68.13,206.56,63.72Z"/><path class="cls-1" d="M252.46,102.88A31.18,31.18,0,0,1,240,91a33.76,33.76,0,0,1-4.46-17.31A33.45,33.45,0,0,1,240,56.38a31.37,31.37,0,0,1,12.43-11.87,39.68,39.68,0,0,1,35.85,0,31.41,31.41,0,0,1,12.42,11.87,33.36,33.36,0,0,1,4.47,17.26A33.67,33.67,0,0,1,300.73,91a31.21,31.21,0,0,1-12.42,11.93,39.59,39.59,0,0,1-35.85,0Zm31.81-14.44q5.5-5.62,5.51-14.8t-5.51-14.81a18.7,18.7,0,0,0-13.95-5.63,18.5,18.5,0,0,0-13.89,5.63Q251,64.46,251,73.64t5.44,14.8a18.46,18.46,0,0,0,13.89,5.63A18.66,18.66,0,0,0,284.27,88.44Z"/><path class="cls-1" d="M418.76,41l-24.11,65.35H380l-16.89-45-17.13,45H331.26L307.28,41h14.44L339,89.18,357,41h12.85l17.62,48.46L405.18,41Z"/><path class="cls-1" d="M487.41,78.53H436.14a17.72,17.72,0,0,0,7,11.44q5.7,4.23,14.14,4.22,10.77,0,17.74-7.09l8.2,9.42a27.6,27.6,0,0,1-11.13,8A44.06,44.06,0,0,1,438,102.88,30.78,30.78,0,0,1,425.31,91a33.67,33.67,0,0,1-4.47-17.31,34.26,34.26,0,0,1,4.34-17.2,30.87,30.87,0,0,1,12.06-11.93,35.22,35.22,0,0,1,17.38-4.28,34.24,34.24,0,0,1,17.07,4.22,29.86,29.86,0,0,1,11.74,11.87A35.93,35.93,0,0,1,487.66,74C487.66,75.06,487.57,76.57,487.41,78.53ZM442.19,56.81A18.33,18.33,0,0,0,436,68.37h37.08a18,18,0,0,0-6-11.5,18.24,18.24,0,0,0-12.48-4.41A18.46,18.46,0,0,0,442.19,56.81Z"/><path class="cls-1" d="M538.93,40.23V54.79a19,19,0,0,0-3.55-.37q-8.93,0-14,5.2t-5,15v31.7H501.12V41h14.56v9.55Q522.3,40.22,538.93,40.23Z"/><path class="cls-1" d="M611.26,78.53H560A17.73,17.73,0,0,0,567,90q5.68,4.23,14.13,4.22,10.77,0,17.75-7.09l8.19,9.42a27.53,27.53,0,0,1-11.13,8,44,44,0,0,1-34.14-1.59A30.8,30.8,0,0,1,549.15,91a33.67,33.67,0,0,1-4.47-17.31A34.17,34.17,0,0,1,549,56.44a30.78,30.78,0,0,1,12.05-11.93,35.22,35.22,0,0,1,17.38-4.28,34.24,34.24,0,0,1,17.07,4.22,29.89,29.89,0,0,1,11.75,11.87A36,36,0,0,1,611.5,74Q611.5,75.59,611.26,78.53ZM566,56.81a18.24,18.24,0,0,0-6.18,11.56h37.08a17.88,17.88,0,0,0-18.48-15.91A18.42,18.42,0,0,0,566,56.81Z"/><path class="cls-1" d="M664.73,106.31,648,83.67l-16.89,22.64H614.19l25.46-33.16L615.29,41h17l16,21.42,16-21.42h16.52L656.41,72.9,682,106.31Z"/><path class="cls-1" d="M737.85,47.14Q745.5,54.06,745.5,68v38.3H731.06v-8a17.84,17.84,0,0,1-8,6.54,31.26,31.26,0,0,1-12.54,2.27,30.79,30.79,0,0,1-12.85-2.51,19.77,19.77,0,0,1-8.5-7,17.69,17.69,0,0,1-3-10.09,17.3,17.3,0,0,1,6.55-14.14q6.54-5.33,20.62-5.32H730.2v-1q0-6.86-4.1-10.52T713.93,53a35.23,35.23,0,0,0-10.83,1.72,26.6,26.6,0,0,0-9,4.77l-6-11.14a37.07,37.07,0,0,1,12.36-6,54.84,54.84,0,0,1,15.29-2.08Q730.21,40.23,737.85,47.14Zm-14,46.26a14.25,14.25,0,0,0,6.3-7.53V78.29H714.42q-13.21,0-13.22,8.68a7.8,7.8,0,0,0,3.3,6.61c2.21,1.64,5.27,2.45,9.18,2.45A19.79,19.79,0,0,0,723.9,93.4Z"/><path class="cls-2" d="M69.59,0H12.53A12.53,12.53,0,0,0,0,12.53V123.09a12.53,12.53,0,0,0,12.53,12.53h0a30.83,30.83,0,0,0,29.66-22.46l9.44-33.51a1.79,1.79,0,0,0-1.72-2.27h-24a1.78,1.78,0,0,1-1.63-2.49L46.37,24.27A1.77,1.77,0,0,1,48,23.2H75.38A1.78,1.78,0,0,1,77,25.7L63.77,56.05a1.79,1.79,0,0,0,1.64,2.5h25a1.78,1.78,0,0,1,1.28,3L53.61,101a3.57,3.57,0,0,0,2.56,6H69.59a53.54,53.54,0,0,0,53.54-53.54h0A53.54,53.54,0,0,0,69.59,0Z"/><path class="cls-3" d="M49.91,77.38h-24l11.19,4.81A5.76,5.76,0,0,1,40.39,89l-6.8,24.12a30.81,30.81,0,0,1-24.39,22,12.57,12.57,0,0,0,3.33.46,30.83,30.83,0,0,0,29.66-22.46l2.25-8,1.41-5,5.78-20.5A1.79,1.79,0,0,0,49.91,77.38Z"/></g></g></svg>